<svg xmlns="http://www.w3.org/2000/svg" viewBox="0 0 24 24" fill="none">
  <!-- 圆形背景 -->
  <circle cx="12" cy="12" r="12" fill="#0E172B"/>
  <!-- Package icon (缩小) -->
  <g stroke="rgb(96, 165, 250)" fill="none" stroke-width="2" stroke-linecap="round" stroke-linejoin="round" transform="translate(12, 12) scale(0.75) translate(-12, -12)">
    <path d="M11 21.73a2 2 0 0 0 2 0l7-4A2 2 0 0 0 21 16V8a2 2 0 0 0-1-1.73l-7-4a2 2 0 0 0-2 0l-7 4A2 2 0 0 0 3 8v8a2 2 0 0 0 1 1.73z"/>
    <path d="M12 22V12"/>
    <polyline points="3.29 7 12 12 20.71 7"/>
    <path d="m7.5 4.27 9 5.15"/>
  </g>
</svg>
